PathFileType	4	(X/Y/Z)	s07c0402.trc
DataRate	CameraRate	NumFrames	NumMarkers	Units	OrigDataRate	OrigDataStartFrame	OrigNumFrames
200	200	4	48	mm	200	1000	2000
Frame#	Time	racr			lacr			c7			jug			rlel			rdr			llel			ldr			s2			lic			ric			lasi			rasi			rpsi			lpsi			rgt			lgt			rth1			rth2			rth3			rth4			rlfc			rmfc			rsh1			rsh2			rsh3			rsh4			rlmal			rcal			rtoe			rmt5			lth1			lth2			lth4			lth3			llfc			lmfc			lsh1			lsh2			lsh3			lsh4			llmal			lcal			ltoe			lmt5			SBIKE			LBIKE			RBIKE			
		X1	Y1	Z1	X2	Y2	Z2	X3	Y3	Z3	X4	Y4	Z4	X5	Y5	Z5	X6	Y6	Z6	X7	Y7	Z7	X8	Y8	Z8	X9	Y9	Z9	X10	Y10	Z10	X11	Y11	Z11	X12	Y12	Z12	X13	Y13	Z13	X14	Y14	Z14	X15	Y15	Z15	X16	Y16	Z16	X17	Y17	Z17	X18	Y18	Z18	X19	Y19	Z19	X20	Y20	Z20	X21	Y21	Z21	X22	Y22	Z22	X23	Y23	Z23	X24	Y24	Z24	X25	Y25	Z25	X26	Y26	Z26	X27	Y27	Z27	X28	Y28	Z28	X29	Y29	Z29	X30	Y30	Z30	X31	Y31	Z31	X32	Y32	Z32	X33	Y33	Z33	X34	Y34	Z34	X35	Y35	Z35	X36	Y36	Z36	X37	Y37	Z37	X38	Y38	Z38	X39	Y39	Z39	X40	Y40	Z40	X41	Y41	Z41	X42	Y42	Z42	X43	Y43	Z43	X44	Y44	Z44	X45	Y45	Z45	X46	Y46	Z46	X47	Y47	Z47	X48	Y48	Z48	
1000	5.0000	781.732762	1413.784838	-52.735441	829.756683	1387.261414	-371.051223	808.447655	1449.664145	-217.834492	750.837303	1308.997771	-219.270940	526.619929	1162.042655	25.498422	694.597564	943.990285	-63.417240	586.035259	1183.939904	-544.762732	693.927952	932.659513	-457.241601	220.376094	1304.983942	-312.830530	404.627521	1299.087801	-435.901422	368.394024	1326.982428	-147.477149	408.413828	1218.602017	-402.229829	381.756078	1272.800822	-159.446843	250.422379	1343.663483	-263.917253	277.001399	1335.732683	-370.349223	297.128327	1223.342152	-100.889605	302.709977	1157.301486	-454.738057	407.920125	1115.108816	-80.566840	479.446367	1064.038769	-81.417334	517.767132	988.634751	-71.888990	506.591285	1084.790606	-99.345964	591.000496	864.207327	-93.313355	584.082529	846.720486	-200.404062	488.213139	766.001506	-69.410819	439.539399	694.185730	-85.437916	361.465069	653.354717	-81.389927	451.630483	683.522577	-123.678273	251.205450	560.189368	-80.970230	170.733621	548.212324	-109.294612	429.744494	418.401241	-130.550697	346.893386	413.779135	-56.955488	313.696014	1037.225891	-450.234652	344.912849	955.723847	-439.409451	378.234686	959.970209	-427.007636	330.404834	868.374794	-433.775469	327.110849	694.376284	-399.954622	306.560963	685.326114	-307.896627	226.411098	584.869285	-420.451864	189.202398	509.974193	-400.404393	116.766429	456.679202	-406.053825	200.121352	514.318898	-358.622462	22.563997	357.912327	-401.933694	-54.121370	366.257630	-365.597558	157.211480	167.309195	-359.934704	79.660491	199.060001	-421.035317	-262.783039	970.361877	-237.337126	-83.273381	79.897746	-437.461213	-83.251488	79.652957	-39.745990	
1001	5.0050	783.177930	1408.910449	-51.834023	829.165612	1386.115087	-370.146317	808.746482	1447.481865	-216.570662	750.236124	1307.097225	-219.067243	525.138258	1160.314349	25.701985	694.444649	943.877640	-63.755689	585.775183	1183.592857	-544.616732	693.608444	932.422274	-457.180225	220.236995	1306.454066	-314.021075	404.997659	1301.680026	-435.700415	367.628944	1326.730019	-147.583570	408.738492	1220.711849	-402.732358	380.753889	1272.888769	-159.770075	250.287260	1345.040851	-264.241348	277.045621	1337.715279	-371.001698	295.237757	1223.693515	-102.200639	304.476740	1158.855576	-456.807362	404.378331	1113.075750	-80.991667	474.754392	1060.623018	-81.281318	511.718247	984.342764	-72.326943	500.363378	1080.938884	-97.863733	582.766865	858.574347	-93.159573	576.415544	841.386104	-200.133110	480.681282	758.819365	-69.003975	434.256114	685.437413	-85.568475	356.984150	643.115438	-81.921921	446.477686	675.641696	-123.710827	249.605672	547.539685	-82.050687	169.564462	531.433646	-109.689544	435.105759	415.018402	-129.487622	352.362412	406.245515	-56.375935	318.254331	1038.297859	-450.824625	351.702578	957.833612	-439.005176	384.585590	963.064458	-425.812915	339.416915	869.778239	-433.141841	338.188835	695.439246	-399.725851	317.704070	686.779845	-307.458622	234.418404	588.637739	-420.200021	194.289118	515.165999	-400.321898	120.059981	464.326132	-406.423420	203.315529	518.609753	-358.425284	22.613363	367.865480	-402.804816	-54.204120	378.555607	-365.451027	150.306929	172.631199	-359.598395	74.185511	206.891447	-420.650728	-262.644215	970.500968	-237.130855	-83.286249	80.024816	-437.450300	-83.251143	79.680034	-39.752788	
1002	5.0100	784.443039	1404.075113	-51.250237	828.636710	1385.451086	-369.445939	808.830217	1445.293215	-215.637896	749.871202	1305.269583	-218.958114	523.701551	1158.577212	26.059722	694.314833	943.744832	-64.053673	585.442811	1183.272232	-544.465229	693.232321	932.097951	-457.147979	220.012969	1307.744865	-314.992705	405.481583	1303.847113	-435.569089	366.883422	1326.208444	-147.507359	409.100883	1222.482272	-403.130554	379.850538	1272.663574	-160.084230	250.245355	1345.980017	-264.428326	277.182016	1339.045864	-371.389658	293.508293	1223.706704	-103.369354	306.129143	1160.223488	-458.683883	400.729527	1110.515811	-81.393858	470.115411	1056.031653	-81.993406	504.942343	979.224246	-72.264743	496.905577	1076.431475	-98.140110	573.804925	852.384721	-92.726131	567.735001	835.659164	-199.994243	473.237448	750.358296	-69.248501	429.398657	675.421247	-85.732021	352.403141	631.792482	-82.977373	441.429118	666.512370	-124.032891	248.147864	534.260564	-83.610471	169.259919	514.524785	-111.698009	439.896886	410.501566	-128.067661	356.878712	398.156280	-55.764042	323.264815	1039.496472	-451.774246	358.719115	959.850570	-438.512837	391.068814	966.059816	-424.595193	348.795262	871.550693	-432.576145	349.076078	697.214212	-399.445367	328.632929	688.446936	-306.967590	242.297861	592.469101	-419.810037	199.811714	520.211341	-400.243452	123.980700	471.931429	-406.638483	206.840295	523.001062	-358.247431	23.667164	377.479096	-403.599755	-53.173070	391.079697	-365.824368	143.970727	178.058866	-359.599080	69.438216	214.764938	-420.504338	-262.496383	970.610555	-236.835681	-83.275346	80.166756	-437.425691	-83.258910	79.700976	-39.735298	
1003	5.0150	785.621430	1399.574709	-50.608537	828.083293	1384.935558	-368.961267	808.963488	1443.287461	-214.019632	749.624869	1303.521694	-219.051963	522.398635	1156.867987	26.437756	694.169016	943.599756	-64.327209	585.042682	1182.972808	-544.317592	692.804148	931.750044	-457.075527	220.068413	1308.424053	-315.846495	405.803293	1305.537333	-435.480422	366.365661	1325.037713	-147.588085	409.479146	1223.894194	-403.526866	378.998272	1272.028878	-160.357497	250.303850	1346.513974	-264.231278	277.465942	1339.903647	-371.292666	291.817158	1223.239909	-104.514141	307.761416	1161.220068	-460.352772	396.916000	1107.434421	-81.902302	465.374868	1051.134839	-82.562199	497.765377	973.564883	-72.216054	492.743085	1071.238951	-97.740078	564.876574	845.491836	-92.549670	559.926644	829.515186	-199.153372	466.078420	740.770659	-70.063677	423.336400	665.142842	-86.574875	347.861015	619.840806	-84.544121	436.440379	656.571535	-124.530089	246.862025	520.582234	-85.344659	169.409472	497.221416	-114.477487	444.078327	404.976466	-126.461315	360.714601	389.625120	-55.152094	328.486565	1040.527890	-453.024209	365.726815	961.772790	-438.094698	397.597192	969.068869	-423.442182	358.282355	873.288044	-431.798005	359.547073	699.167471	-399.486844	339.141114	690.203690	-306.202312	250.148140	596.048067	-419.348615	205.424375	525.159766	-400.054637	128.272874	479.039084	-406.703519	210.631612	527.479020	-358.089887	25.381041	387.087988	-404.378764	-51.107749	403.948488	-366.291712	138.109968	183.665229	-359.849352	65.065668	222.687808	-420.198076	-262.372143	970.664808	-236.525825	-83.266829	80.267029	-437.383744	-83.240489	79.701728	-39.702982	
